
<svg xmlns="http://www.w3.org/2000/svg" width="270.411" height="270.417" viewBox="-70.871 -70.875 202.808 202.813">
  <path fill="none" stroke="#000" stroke-miterlimit="10" stroke-width=".399" d="M-54.508 115.57h170.082V-54.508H-54.508Z"/>
  <path fill="gray" d="M-54.508 115.57V87.227h28.348v28.343Zm28.348-28.343V58.879H2.188v28.348Z"/>
  <path fill="#fff0e6" d="M-26.16 115.57V87.227H2.188v28.343Zm-28.348-28.343V58.879h28.348v28.348Z"/>
  <path fill="gray" d="M2.188 115.57V87.227h28.347v28.343Zm28.347-28.343V58.879H58.88v28.348Z"/>
  <path fill="#fff0e6" d="M30.535 115.57V87.227H58.88v28.343ZM2.188 87.227V58.879h28.347v28.348Z"/>
  <path fill="gray" d="M58.879 115.57V87.227h28.348v28.343Zm28.348-28.343V58.879h28.347v28.348Z"/>
  <path fill="#fff0e6" d="M87.227 115.57V87.227h28.347v28.343ZM58.879 87.227V58.879h28.348v28.348Z"/>
  <path fill="gray" d="M-54.508 58.879V30.53h28.348v28.35ZM-26.16 30.53V2.184H2.188v28.347Z"/>
  <path fill="#fff0e6" d="M-26.16 58.879V30.53H2.188v28.35Zm-28.348-28.348V2.184h28.348v28.347Z"/>
  <path fill="gray" d="M2.188 58.879V30.53h28.347v28.35ZM30.535 30.53V2.184H58.88v28.347Z"/>
  <path fill="#fff0e6" d="M30.535 58.879V30.53H58.88v28.35ZM2.188 30.531V2.184h28.347v28.347Z"/>
  <path fill="gray" d="M58.879 58.879V30.53h28.348v28.35ZM87.227 30.53V2.184h28.347v28.347Z"/>
  <path fill="#fff0e6" d="M87.227 58.879V30.53h28.347v28.35ZM58.879 30.531V2.184h28.348v28.347Z"/>
  <path fill="gray" d="M-54.508 2.184V-26.16h28.348V2.184ZM-26.16-26.16v-28.348H2.188v28.348Z"/>
  <path fill="#fff0e6" d="M-26.16 2.184V-26.16H2.188V2.184ZM-54.508-26.16v-28.348h28.348v28.348Z"/>
  <path fill="gray" d="M2.188 2.184V-26.16h28.347V2.184ZM30.535-26.16v-28.348H58.88v28.348Z"/>
  <path fill="#fff0e6" d="M30.535 2.184V-26.16H58.88V2.184ZM2.188-26.16v-28.348h28.347v28.348Z"/>
  <path fill="gray" d="M58.879 2.184V-26.16h28.348V2.184ZM87.227-26.16v-28.348h28.347v28.348Z"/>
  <path fill="#fff0e6" d="M87.227 2.184V-26.16h28.347V2.184ZM58.879-26.16v-28.348h28.348v28.348Z"/>
  <path fill="gray" d="M-54.508 115.57h28.348c0 7.828 6.344 14.176 14.172 14.176s14.175-6.348 14.175-14.176Z"/>
  <path fill="none" stroke="gray" stroke-miterlimit="10" stroke-width=".399" d="M-54.508 115.57h28.348c0 7.828 6.344 14.176 14.172 14.176s14.175-6.348 14.175-14.176Z"/>
  <path fill="gray" d="M-54.508-54.508h28.348c0-7.828-6.344-14.176-14.172-14.176s-14.176 6.348-14.176 14.176Z"/>
  <path fill="none" stroke="gray" stroke-miterlimit="10" stroke-width=".399" d="M-54.508-54.508h28.348c0-7.828-6.344-14.176-14.172-14.176s-14.176 6.348-14.176 14.176Z"/>
  <path fill="gray" d="M2.188 115.57h28.347c0 7.828 6.344 14.176 14.172 14.176s14.172-6.348 14.172-14.176Z"/>
  <path fill="none" stroke="gray" stroke-miterlimit="10" stroke-width=".399" d="M2.188 115.57h28.347c0 7.828 6.344 14.176 14.172 14.176s14.172-6.348 14.172-14.176Z"/>
  <path fill="gray" d="M2.188-54.508h28.347c0-7.828-6.348-14.176-14.176-14.176S2.187-62.336 2.187-54.508Z"/>
  <path fill="none" stroke="gray" stroke-miterlimit="10" stroke-width=".399" d="M2.188-54.508h28.347c0-7.828-6.348-14.176-14.176-14.176S2.187-62.336 2.187-54.508Z"/>
  <path fill="gray" d="M58.879 115.57h28.348c0 7.828 6.347 14.176 14.172 14.176 7.828 0 14.175-6.348 14.175-14.176Z"/>
  <path fill="none" stroke="gray" stroke-miterlimit="10" stroke-width=".399" d="M58.879 115.57h28.348c0 7.828 6.347 14.176 14.172 14.176 7.828 0 14.175-6.348 14.175-14.176Z"/>
  <path fill="gray" d="M58.879-54.508h28.348c0-7.828-6.344-14.176-14.172-14.176s-14.176 6.348-14.176 14.176Z"/>
  <path fill="none" stroke="gray" stroke-miterlimit="10" stroke-width=".399" d="M58.879-54.508h28.348c0-7.828-6.344-14.176-14.172-14.176s-14.176 6.348-14.176 14.176Z"/>
  <path fill="#fff0e6" d="M-54.508 115.57V87.227c-7.828 0-14.172 6.343-14.172 14.171 0 7.829 6.344 14.172 14.172 14.172"/>
  <path fill="none" stroke="#000" stroke-miterlimit="10" stroke-width=".399" d="M-54.508 115.57V87.227c-7.828 0-14.172 6.343-14.172 14.171 0 7.829 6.344 14.172 14.172 14.172"/>
  <path fill="#fff0e6" d="M115.574 115.57V87.227c7.828 0 14.172-6.348 14.172-14.176s-6.344-14.172-14.172-14.172"/>
  <path fill="none" stroke="#000" stroke-miterlimit="10" stroke-width=".399" d="M115.574 115.57V87.227c7.828 0 14.172-6.348 14.172-14.176s-6.344-14.172-14.172-14.172"/>
  <path fill="#fff0e6" d="M-54.508 58.879V30.53c-7.828 0-14.172 6.348-14.172 14.172 0 7.828 6.344 14.176 14.172 14.176"/>
  <path fill="none" stroke="#000" stroke-miterlimit="10" stroke-width=".399" d="M-54.508 58.879V30.53c-7.828 0-14.172 6.348-14.172 14.172 0 7.828 6.344 14.176 14.172 14.176"/>
  <path fill="#fff0e6" d="M115.574 58.879V30.53c7.828 0 14.172-6.343 14.172-14.172 0-7.828-6.344-14.175-14.172-14.175"/>
  <path fill="none" stroke="#000" stroke-miterlimit="10" stroke-width=".399" d="M115.574 58.879V30.53c7.828 0 14.172-6.343 14.172-14.172 0-7.828-6.344-14.175-14.172-14.175"/>
  <path fill="#fff0e6" d="M-54.508 2.184V-26.16c-7.828 0-14.172 6.344-14.172 14.172s6.344 14.172 14.172 14.172"/>
  <path fill="none" stroke="#000" stroke-miterlimit="10" stroke-width=".399" d="M-54.508 2.184V-26.16c-7.828 0-14.172 6.344-14.172 14.172s6.344 14.172 14.172 14.172"/>
  <path fill="#fff0e6" d="M115.574 2.184V-26.16c7.828 0 14.172-6.348 14.172-14.176s-6.344-14.172-14.172-14.172"/>
  <path fill="none" stroke="#000" stroke-miterlimit="10" stroke-width=".399" d="M115.574 2.184V-26.16c7.828 0 14.172-6.348 14.172-14.176s-6.344-14.172-14.172-14.172"/>
  <path fill="#ffd9d9" d="M-38.34 101.398a1.994 1.994 0 0 0-3.988 0 1.994 1.994 0 0 0 3.988 0Z"/>
  <path fill="none" stroke="#000" stroke-miterlimit="10" stroke-width=".399" d="M-38.34 101.398a1.994 1.994 0 0 0-3.988 0 1.994 1.994 0 0 0 3.988 0Z"/>
  <path fill="#ffd9d9" d="M-38.34 73.05a1.996 1.996 0 0 0-1.992-1.991 1.996 1.996 0 0 0-1.996 1.992 1.994 1.994 0 0 0 3.988 0Z"/>
  <path fill="none" stroke="#000" stroke-miterlimit="10" stroke-width=".399" d="M-38.34 73.05a1.996 1.996 0 0 0-1.992-1.991 1.996 1.996 0 0 0-1.996 1.992 1.994 1.994 0 0 0 3.988 0Z"/>
  <path fill="#ffd9d9" d="M-38.34 44.703a1.996 1.996 0 0 0-1.992-1.992 1.996 1.996 0 0 0-1.996 1.992c0 1.102.894 1.996 1.996 1.996a1.996 1.996 0 0 0 1.992-1.996Z"/>
  <path fill="none" stroke="#000" stroke-miterlimit="10" stroke-width=".399" d="M-38.34 44.703a1.996 1.996 0 0 0-1.992-1.992 1.996 1.996 0 0 0-1.996 1.992c0 1.102.894 1.996 1.996 1.996a1.996 1.996 0 0 0 1.992-1.996Z"/>
  <path fill="#ffd9d9" d="M-38.34 16.36a1.993 1.993 0 1 0-3.986.001 1.993 1.993 0 0 0 3.986-.002Z"/>
  <path fill="none" stroke="#000" stroke-miterlimit="10" stroke-width=".399" d="M-38.34 16.36a1.993 1.993 0 1 0-3.986.001 1.993 1.993 0 0 0 3.986-.002Z"/>
  <path fill="#ffd9d9" d="M-38.34-11.988a1.993 1.993 0 0 0-3.988 0 1.994 1.994 0 0 0 3.988 0Z"/>
  <path fill="none" stroke="#000" stroke-miterlimit="10" stroke-width=".399" d="M-38.34-11.988a1.993 1.993 0 0 0-3.988 0 1.994 1.994 0 0 0 3.988 0Z"/>
  <path fill="#ffd9d9" d="M-38.34-40.336a1.993 1.993 0 0 0-3.988 0 1.993 1.993 0 0 0 3.988 0Z"/>
  <path fill="none" stroke="#000" stroke-miterlimit="10" stroke-width=".399" d="M-38.34-40.336a1.993 1.993 0 0 0-3.988 0 1.993 1.993 0 0 0 3.988 0Z"/>
  <path fill="#ffd9d9" d="M-9.996 101.398a1.993 1.993 0 1 0-3.983.002 1.993 1.993 0 0 0 3.983-.002Z"/>
  <path fill="none" stroke="#000" stroke-miterlimit="10" stroke-width=".399" d="M-9.996 101.398a1.993 1.993 0 1 0-3.983.002 1.993 1.993 0 0 0 3.983-.002Z"/>
  <path fill="#ffd9d9" d="M-9.996 73.05a1.993 1.993 0 1 0-3.986.002 1.993 1.993 0 0 0 3.986-.001Z"/>
  <path fill="none" stroke="#000" stroke-miterlimit="10" stroke-width=".399" d="M-9.996 73.05a1.993 1.993 0 1 0-3.986.002 1.993 1.993 0 0 0 3.986-.001Z"/>
  <path fill="#ffd9d9" d="M-9.996 44.703a1.993 1.993 0 1 0-1.992 1.996 1.994 1.994 0 0 0 1.992-1.996Z"/>
  <path fill="none" stroke="#000" stroke-miterlimit="10" stroke-width=".399" d="M-9.996 44.703a1.993 1.993 0 1 0-1.992 1.996 1.994 1.994 0 0 0 1.992-1.996Z"/>
  <path fill="#ffd9d9" d="M-9.996 16.36a1.993 1.993 0 1 0-1.992 1.992 1.993 1.993 0 0 0 1.992-1.993Z"/>
  <path fill="none" stroke="#000" stroke-miterlimit="10" stroke-width=".399" d="M-9.996 16.36a1.993 1.993 0 1 0-1.992 1.992 1.993 1.993 0 0 0 1.992-1.993Z"/>
  <path fill="#ffd9d9" d="M-9.996-11.988a1.993 1.993 0 1 0-3.984.001 1.993 1.993 0 0 0 3.984-.001Z"/>
  <path fill="none" stroke="#000" stroke-miterlimit="10" stroke-width=".399" d="M-9.996-11.988a1.993 1.993 0 1 0-3.984.001 1.993 1.993 0 0 0 3.984-.001Z"/>
  <path fill="#ffd9d9" d="M-9.996-40.336a1.993 1.993 0 0 0-3.984 0 1.993 1.993 0 0 0 3.984 0Z"/>
  <path fill="none" stroke="#000" stroke-miterlimit="10" stroke-width=".399" d="M-9.996-40.336a1.993 1.993 0 0 0-3.984 0 1.993 1.993 0 0 0 3.984 0Z"/>
  <path fill="#ffd9d9" d="M18.352 101.398a1.99 1.99 0 0 0-1.993-1.992 1.99 1.99 0 0 0-1.992 1.992 1.99 1.99 0 0 0 1.992 1.993 1.99 1.99 0 0 0 1.993-1.993Z"/>
  <path fill="none" stroke="#000" stroke-miterlimit="10" stroke-width=".399" d="M18.352 101.398a1.99 1.99 0 0 0-1.993-1.992 1.99 1.99 0 0 0-1.992 1.992 1.99 1.99 0 0 0 1.992 1.993 1.99 1.99 0 0 0 1.993-1.993Z"/>
  <path fill="#ffd9d9" d="M18.352 73.05a1.993 1.993 0 1 0-3.986.002 1.993 1.993 0 0 0 3.986-.001Z"/>
  <path fill="none" stroke="#000" stroke-miterlimit="10" stroke-width=".399" d="M18.352 73.05a1.993 1.993 0 1 0-3.986.002 1.993 1.993 0 0 0 3.986-.001Z"/>
  <path fill="#ffd9d9" d="M18.352 44.703a1.993 1.993 0 1 0-1.993 1.996 1.994 1.994 0 0 0 1.993-1.996Z"/>
  <path fill="none" stroke="#000" stroke-miterlimit="10" stroke-width=".399" d="M18.352 44.703a1.993 1.993 0 1 0-1.993 1.996 1.994 1.994 0 0 0 1.993-1.996Z"/>
  <path fill="#ffd9d9" d="M18.352 16.36a1.99 1.99 0 0 0-1.993-1.993 1.993 1.993 0 1 0 1.992 1.992Z"/>
  <path fill="none" stroke="#000" stroke-miterlimit="10" stroke-width=".399" d="M18.352 16.36a1.99 1.99 0 0 0-1.993-1.993 1.993 1.993 0 1 0 1.992 1.992Z"/>
  <path fill="#ffd9d9" d="M18.352-11.988a1.99 1.99 0 0 0-1.993-1.992 1.99 1.99 0 0 0-1.992 1.992 1.99 1.99 0 0 0 1.992 1.992 1.99 1.99 0 0 0 1.993-1.992Z"/>
  <path fill="none" stroke="#000" stroke-miterlimit="10" stroke-width=".399" d="M18.352-11.988a1.99 1.99 0 0 0-1.993-1.992 1.99 1.99 0 0 0-1.992 1.992 1.99 1.99 0 0 0 1.992 1.992 1.99 1.99 0 0 0 1.993-1.992Z"/>
  <path fill="#ffd9d9" d="M18.352-40.336a1.99 1.99 0 0 0-1.993-1.992 1.99 1.99 0 0 0-1.992 1.992 1.99 1.99 0 0 0 1.992 1.992 1.99 1.99 0 0 0 1.993-1.992Z"/>
  <path fill="none" stroke="#000" stroke-miterlimit="10" stroke-width=".399" d="M18.352-40.336a1.99 1.99 0 0 0-1.993-1.992 1.99 1.99 0 0 0-1.992 1.992 1.99 1.99 0 0 0 1.992 1.992 1.99 1.99 0 0 0 1.993-1.992Z"/>
  <path fill="#ffd9d9" d="M46.699 101.398a1.99 1.99 0 0 0-1.992-1.992 1.99 1.99 0 0 0-1.992 1.992 1.99 1.99 0 0 0 1.992 1.993 1.99 1.99 0 0 0 1.992-1.993Z"/>
  <path fill="none" stroke="#000" stroke-miterlimit="10" stroke-width=".399" d="M46.699 101.398a1.99 1.99 0 0 0-1.992-1.992 1.99 1.99 0 0 0-1.992 1.992 1.99 1.99 0 0 0 1.992 1.993 1.99 1.99 0 0 0 1.992-1.993Z"/>
  <path fill="#ffd9d9" d="M46.699 73.05a1.993 1.993 0 1 0-3.985.001 1.993 1.993 0 0 0 3.985 0Z"/>
  <path fill="none" stroke="#000" stroke-miterlimit="10" stroke-width=".399" d="M46.699 73.05a1.993 1.993 0 1 0-3.985.001 1.993 1.993 0 0 0 3.985 0Z"/>
  <path fill="#ffd9d9" d="M46.699 44.703a1.993 1.993 0 0 0-3.984 0c0 1.102.89 1.996 1.992 1.996a1.993 1.993 0 0 0 1.992-1.996Z"/>
  <path fill="none" stroke="#000" stroke-miterlimit="10" stroke-width=".399" d="M46.699 44.703a1.993 1.993 0 0 0-3.984 0c0 1.102.89 1.996 1.992 1.996a1.993 1.993 0 0 0 1.992-1.996Z"/>
  <path fill="#ffd9d9" d="M46.699 16.36a1.99 1.99 0 0 0-1.992-1.993 1.993 1.993 0 1 0 1.992 1.992Z"/>
  <path fill="none" stroke="#000" stroke-miterlimit="10" stroke-width=".399" d="M46.699 16.36a1.99 1.99 0 0 0-1.992-1.993 1.993 1.993 0 1 0 1.992 1.992Z"/>
  <path fill="#ffd9d9" d="M46.699-11.988a1.99 1.99 0 0 0-1.992-1.992 1.99 1.99 0 0 0-1.992 1.992 1.99 1.99 0 0 0 1.992 1.992 1.99 1.99 0 0 0 1.992-1.992Z"/>
  <path fill="none" stroke="#000" stroke-miterlimit="10" stroke-width=".399" d="M46.699-11.988a1.99 1.99 0 0 0-1.992-1.992 1.99 1.99 0 0 0-1.992 1.992 1.99 1.99 0 0 0 1.992 1.992 1.99 1.99 0 0 0 1.992-1.992Z"/>
  <path fill="#ffd9d9" d="M46.699-40.336a1.99 1.99 0 0 0-1.992-1.992 1.99 1.99 0 0 0-1.992 1.992 1.99 1.99 0 0 0 1.992 1.992 1.99 1.99 0 0 0 1.992-1.992Z"/>
  <path fill="none" stroke="#000" stroke-miterlimit="10" stroke-width=".399" d="M46.699-40.336a1.99 1.99 0 0 0-1.992-1.992 1.99 1.99 0 0 0-1.992 1.992 1.99 1.99 0 0 0 1.992 1.992 1.99 1.99 0 0 0 1.992-1.992Z"/>
  <path fill="#ffd9d9" d="M75.047 101.398a1.993 1.993 0 1 0-3.987.003 1.993 1.993 0 0 0 3.987-.003Z"/>
  <path fill="none" stroke="#000" stroke-miterlimit="10" stroke-width=".399" d="M75.047 101.398a1.993 1.993 0 1 0-3.987.003 1.993 1.993 0 0 0 3.987-.003Z"/>
  <path fill="#ffd9d9" d="M75.047 73.05a1.993 1.993 0 1 0-3.983 0 1.993 1.993 0 0 0 3.983 0Z"/>
  <path fill="none" stroke="#000" stroke-miterlimit="10" stroke-width=".399" d="M75.047 73.05a1.993 1.993 0 1 0-3.983 0 1.993 1.993 0 0 0 3.983 0Z"/>
  <path fill="#ffd9d9" d="M75.047 44.703a1.993 1.993 0 0 0-3.984 0c0 1.102.89 1.996 1.992 1.996a1.997 1.997 0 0 0 1.992-1.996Z"/>
  <path fill="none" stroke="#000" stroke-miterlimit="10" stroke-width=".399" d="M75.047 44.703a1.993 1.993 0 0 0-3.984 0c0 1.102.89 1.996 1.992 1.996a1.997 1.997 0 0 0 1.992-1.996Z"/>
  <path fill="#ffd9d9" d="M75.047 16.36a1.994 1.994 0 0 0-1.992-1.993 1.993 1.993 0 1 0 1.992 1.992Z"/>
  <path fill="none" stroke="#000" stroke-miterlimit="10" stroke-width=".399" d="M75.047 16.36a1.994 1.994 0 0 0-1.992-1.993 1.993 1.993 0 1 0 1.992 1.992Z"/>
  <path fill="#ffd9d9" d="M75.047-11.988a1.993 1.993 0 1 0-3.986.002 1.993 1.993 0 0 0 3.986-.002Z"/>
  <path fill="none" stroke="#000" stroke-miterlimit="10" stroke-width=".399" d="M75.047-11.988a1.993 1.993 0 1 0-3.986.002 1.993 1.993 0 0 0 3.986-.002Z"/>
  <path fill="#ffd9d9" d="M75.047-40.336a1.993 1.993 0 0 0-1.992-1.992 1.99 1.99 0 0 0-1.992 1.992 1.993 1.993 0 0 0 3.984 0Z"/>
  <path fill="none" stroke="#000" stroke-miterlimit="10" stroke-width=".399" d="M75.047-40.336a1.993 1.993 0 0 0-1.992-1.992 1.99 1.99 0 0 0-1.992 1.992 1.993 1.993 0 0 0 3.984 0Z"/>
  <path fill="#ffd9d9" d="M103.395 101.398a1.994 1.994 0 0 0-3.99 0 1.994 1.994 0 0 0 3.989 0Z"/>
  <path fill="none" stroke="#000" stroke-miterlimit="10" stroke-width=".399" d="M103.395 101.398a1.994 1.994 0 0 0-3.99 0 1.994 1.994 0 0 0 3.989 0Z"/>
  <path fill="#ffd9d9" d="M103.395 73.05a1.997 1.997 0 0 0-1.996-1.991 1.996 1.996 0 0 0-1.993 1.992 1.994 1.994 0 0 0 3.989 0Z"/>
  <path fill="none" stroke="#000" stroke-miterlimit="10" stroke-width=".399" d="M103.395 73.05a1.997 1.997 0 0 0-1.996-1.991 1.996 1.996 0 0 0-1.993 1.992 1.994 1.994 0 0 0 3.989 0Z"/>
  <path fill="#ffd9d9" d="M103.395 44.703a1.997 1.997 0 0 0-1.996-1.992 1.996 1.996 0 0 0-1.993 1.992c0 1.102.895 1.996 1.993 1.996a1.997 1.997 0 0 0 1.996-1.996Z"/>
  <path fill="none" stroke="#000" stroke-miterlimit="10" stroke-width=".399" d="M103.395 44.703a1.997 1.997 0 0 0-1.996-1.992 1.996 1.996 0 0 0-1.993 1.992c0 1.102.895 1.996 1.993 1.996a1.997 1.997 0 0 0 1.996-1.996Z"/>
  <path fill="#ffd9d9" d="M103.395 16.36a1.994 1.994 0 0 0-3.99 0c0 1.097.896 1.992 1.994 1.992a1.997 1.997 0 0 0 1.996-1.993Z"/>
  <path fill="none" stroke="#000" stroke-miterlimit="10" stroke-width=".399" d="M103.395 16.36a1.994 1.994 0 0 0-3.99 0c0 1.097.896 1.992 1.994 1.992a1.997 1.997 0 0 0 1.996-1.993Z"/>
  <path fill="#ffd9d9" d="M103.395-11.988a1.994 1.994 0 0 0-3.99 0 1.994 1.994 0 0 0 3.99 0Z"/>
  <path fill="none" stroke="#000" stroke-miterlimit="10" stroke-width=".399" d="M103.395-11.988a1.994 1.994 0 0 0-3.99 0 1.994 1.994 0 0 0 3.99 0Z"/>
  <path fill="#ffd9d9" d="M103.395-40.336a1.994 1.994 0 0 0-3.99 0 1.994 1.994 0 0 0 3.99 0Z"/>
  <path fill="none" stroke="#000" stroke-miterlimit="10" stroke-width=".399" d="M103.395-40.336a1.994 1.994 0 0 0-3.99 0 1.994 1.994 0 0 0 3.99 0Z"/>
  <path fill="none" stroke="gray" stroke-dasharray="2.98883 2.98883" stroke-miterlimit="10" stroke-width=".797" d="M-54.508-54.508 115.574 115.57M-26.16-54.508l-42.52 42.52m42.52 127.558L129.746-40.336M-68.68 101.398l14.172 14.172m184.254-42.52-14.172-14.17M2.188 115.57l-56.696-56.69M2.188-54.508 115.573 58.879M30.535-54.508-68.68 44.703m99.215 70.867 99.21-99.21M-68.68 44.703l14.172 14.176M129.746 16.36 115.574 2.183M58.879 115.57-54.508 2.184M58.879-54.508l56.695 56.692M87.227-54.508-68.68 101.398M87.227 115.57l42.519-42.52M-68.68-11.988l14.172 14.172m184.254-42.52-14.172-14.172"/>
  <path fill="none" stroke="#fff0e6" stroke-dasharray="2.98883 1.99255 .79701 1.99255" stroke-miterlimit="10" stroke-width=".797" d="m-54.508 87.227 42.52 42.52M-40.332-68.684l155.906 155.91M2.188-54.508-54.508 2.184M2.188 115.57 115.573 2.184M-11.988 129.746 2.187 115.57M-40.332-68.684l-14.176 14.176m0 85.039 99.215 99.215M16.36-68.684l99.214 99.215M58.879-54.508-54.508 58.879M58.879 115.57l56.695-56.691m-70.867 70.867 14.172-14.176M16.36-68.684 2.187-54.508M-54.508-26.16 101.4 129.746M73.055-68.684l42.519 42.524m0-28.348L-54.508 115.57m155.907 14.176 14.175-14.176M73.055-68.684 58.879-54.508"/>
  <path fill="#ffd9d9" d="M-38.34 101.398a1.994 1.994 0 0 0-3.988 0 1.994 1.994 0 0 0 3.988 0Z"/>
  <path fill="none" stroke="#000" stroke-miterlimit="10" stroke-width=".399" d="M-38.34 101.398a1.994 1.994 0 0 0-3.988 0 1.994 1.994 0 0 0 3.988 0Z"/>
  <path fill="#ffd9d9" d="M-38.34 73.05a1.996 1.996 0 0 0-1.992-1.991 1.996 1.996 0 0 0-1.996 1.992 1.994 1.994 0 0 0 3.988 0Z"/>
  <path fill="none" stroke="#000" stroke-miterlimit="10" stroke-width=".399" d="M-38.34 73.05a1.996 1.996 0 0 0-1.992-1.991 1.996 1.996 0 0 0-1.996 1.992 1.994 1.994 0 0 0 3.988 0Z"/>
  <path fill="#ffd9d9" d="M-38.34 44.703a1.996 1.996 0 0 0-1.992-1.992 1.996 1.996 0 0 0-1.996 1.992c0 1.102.894 1.996 1.996 1.996a1.996 1.996 0 0 0 1.992-1.996Z"/>
  <path fill="none" stroke="#000" stroke-miterlimit="10" stroke-width=".399" d="M-38.34 44.703a1.996 1.996 0 0 0-1.992-1.992 1.996 1.996 0 0 0-1.996 1.992c0 1.102.894 1.996 1.996 1.996a1.996 1.996 0 0 0 1.992-1.996Z"/>
  <path fill="#ffd9d9" d="M-38.34 16.36a1.993 1.993 0 1 0-3.986.001 1.993 1.993 0 0 0 3.986-.002Z"/>
  <path fill="none" stroke="#000" stroke-miterlimit="10" stroke-width=".399" d="M-38.34 16.36a1.993 1.993 0 1 0-3.986.001 1.993 1.993 0 0 0 3.986-.002Z"/>
  <path fill="#ffd9d9" d="M-38.34-11.988a1.993 1.993 0 0 0-3.988 0 1.994 1.994 0 0 0 3.988 0Z"/>
  <path fill="none" stroke="#000" stroke-miterlimit="10" stroke-width=".399" d="M-38.34-11.988a1.993 1.993 0 0 0-3.988 0 1.994 1.994 0 0 0 3.988 0Z"/>
  <path fill="#ffd9d9" d="M-38.34-40.336a1.993 1.993 0 0 0-3.988 0 1.993 1.993 0 0 0 3.988 0Z"/>
  <path fill="none" stroke="#000" stroke-miterlimit="10" stroke-width=".399" d="M-38.34-40.336a1.993 1.993 0 0 0-3.988 0 1.993 1.993 0 0 0 3.988 0Z"/>
  <path fill="#ffd9d9" d="M-9.996 101.398a1.993 1.993 0 1 0-3.983.002 1.993 1.993 0 0 0 3.983-.002Z"/>
  <path fill="none" stroke="#000" stroke-miterlimit="10" stroke-width=".399" d="M-9.996 101.398a1.993 1.993 0 1 0-3.983.002 1.993 1.993 0 0 0 3.983-.002Z"/>
  <path fill="#ffd9d9" d="M-9.996 73.05a1.993 1.993 0 1 0-3.986.002 1.993 1.993 0 0 0 3.986-.001Z"/>
  <path fill="none" stroke="#000" stroke-miterlimit="10" stroke-width=".399" d="M-9.996 73.05a1.993 1.993 0 1 0-3.986.002 1.993 1.993 0 0 0 3.986-.001Z"/>
  <path fill="#ffd9d9" d="M-9.996 44.703a1.993 1.993 0 1 0-1.992 1.996 1.994 1.994 0 0 0 1.992-1.996Z"/>
  <path fill="none" stroke="#000" stroke-miterlimit="10" stroke-width=".399" d="M-9.996 44.703a1.993 1.993 0 1 0-1.992 1.996 1.994 1.994 0 0 0 1.992-1.996Z"/>
  <path fill="#ffd9d9" d="M-9.996 16.36a1.993 1.993 0 1 0-1.992 1.992 1.993 1.993 0 0 0 1.992-1.993Z"/>
  <path fill="none" stroke="#000" stroke-miterlimit="10" stroke-width=".399" d="M-9.996 16.36a1.993 1.993 0 1 0-1.992 1.992 1.993 1.993 0 0 0 1.992-1.993Z"/>
  <path fill="#ffd9d9" d="M-9.996-11.988a1.993 1.993 0 1 0-3.984.001 1.993 1.993 0 0 0 3.984-.001Z"/>
  <path fill="none" stroke="#000" stroke-miterlimit="10" stroke-width=".399" d="M-9.996-11.988a1.993 1.993 0 1 0-3.984.001 1.993 1.993 0 0 0 3.984-.001Z"/>
  <path fill="#ffd9d9" d="M-9.996-40.336a1.993 1.993 0 0 0-3.984 0 1.993 1.993 0 0 0 3.984 0Z"/>
  <path fill="none" stroke="#000" stroke-miterlimit="10" stroke-width=".399" d="M-9.996-40.336a1.993 1.993 0 0 0-3.984 0 1.993 1.993 0 0 0 3.984 0Z"/>
  <path fill="#ffd9d9" d="M18.352 101.398a1.99 1.99 0 0 0-1.993-1.992 1.99 1.99 0 0 0-1.992 1.992 1.99 1.99 0 0 0 1.992 1.993 1.99 1.99 0 0 0 1.993-1.993Z"/>
  <path fill="none" stroke="#000" stroke-miterlimit="10" stroke-width=".399" d="M18.352 101.398a1.99 1.99 0 0 0-1.993-1.992 1.99 1.99 0 0 0-1.992 1.992 1.99 1.99 0 0 0 1.992 1.993 1.99 1.99 0 0 0 1.993-1.993Z"/>
  <path fill="#ffd9d9" d="M18.352 73.05a1.993 1.993 0 1 0-3.986.002 1.993 1.993 0 0 0 3.986-.001Z"/>
  <path fill="none" stroke="#000" stroke-miterlimit="10" stroke-width=".399" d="M18.352 73.05a1.993 1.993 0 1 0-3.986.002 1.993 1.993 0 0 0 3.986-.001Z"/>
  <path fill="#ffd9d9" d="M18.352 44.703a1.993 1.993 0 1 0-1.993 1.996 1.994 1.994 0 0 0 1.993-1.996Z"/>
  <path fill="none" stroke="#000" stroke-miterlimit="10" stroke-width=".399" d="M18.352 44.703a1.993 1.993 0 1 0-1.993 1.996 1.994 1.994 0 0 0 1.993-1.996Z"/>
  <path fill="#ffd9d9" d="M18.352 16.36a1.99 1.99 0 0 0-1.993-1.993 1.993 1.993 0 1 0 1.992 1.992Z"/>
  <path fill="none" stroke="#000" stroke-miterlimit="10" stroke-width=".399" d="M18.352 16.36a1.99 1.99 0 0 0-1.993-1.993 1.993 1.993 0 1 0 1.992 1.992Z"/>
  <path fill="#ffd9d9" d="M18.352-11.988a1.99 1.99 0 0 0-1.993-1.992 1.99 1.99 0 0 0-1.992 1.992 1.99 1.99 0 0 0 1.992 1.992 1.99 1.99 0 0 0 1.993-1.992Z"/>
  <path fill="none" stroke="#000" stroke-miterlimit="10" stroke-width=".399" d="M18.352-11.988a1.99 1.99 0 0 0-1.993-1.992 1.99 1.99 0 0 0-1.992 1.992 1.99 1.99 0 0 0 1.992 1.992 1.99 1.99 0 0 0 1.993-1.992Z"/>
  <path fill="#ffd9d9" d="M18.352-40.336a1.99 1.99 0 0 0-1.993-1.992 1.99 1.99 0 0 0-1.992 1.992 1.99 1.99 0 0 0 1.992 1.992 1.99 1.99 0 0 0 1.993-1.992Z"/>
  <path fill="none" stroke="#000" stroke-miterlimit="10" stroke-width=".399" d="M18.352-40.336a1.99 1.99 0 0 0-1.993-1.992 1.99 1.99 0 0 0-1.992 1.992 1.99 1.99 0 0 0 1.992 1.992 1.99 1.99 0 0 0 1.993-1.992Z"/>
  <path fill="#ffd9d9" d="M46.699 101.398a1.99 1.99 0 0 0-1.992-1.992 1.99 1.99 0 0 0-1.992 1.992 1.99 1.99 0 0 0 1.992 1.993 1.99 1.99 0 0 0 1.992-1.993Z"/>
  <path fill="none" stroke="#000" stroke-miterlimit="10" stroke-width=".399" d="M46.699 101.398a1.99 1.99 0 0 0-1.992-1.992 1.99 1.99 0 0 0-1.992 1.992 1.99 1.99 0 0 0 1.992 1.993 1.99 1.99 0 0 0 1.992-1.993Z"/>
  <path fill="#ffd9d9" d="M46.699 73.05a1.993 1.993 0 1 0-3.985.001 1.993 1.993 0 0 0 3.985 0Z"/>
  <path fill="none" stroke="#000" stroke-miterlimit="10" stroke-width=".399" d="M46.699 73.05a1.993 1.993 0 1 0-3.985.001 1.993 1.993 0 0 0 3.985 0Z"/>
  <path fill="#ffd9d9" d="M46.699 44.703a1.993 1.993 0 0 0-3.984 0c0 1.102.89 1.996 1.992 1.996a1.993 1.993 0 0 0 1.992-1.996Z"/>
  <path fill="none" stroke="#000" stroke-miterlimit="10" stroke-width=".399" d="M46.699 44.703a1.993 1.993 0 0 0-3.984 0c0 1.102.89 1.996 1.992 1.996a1.993 1.993 0 0 0 1.992-1.996Z"/>
  <path fill="#ffd9d9" d="M46.699 16.36a1.99 1.99 0 0 0-1.992-1.993 1.993 1.993 0 1 0 1.992 1.992Z"/>
  <path fill="none" stroke="#000" stroke-miterlimit="10" stroke-width=".399" d="M46.699 16.36a1.99 1.99 0 0 0-1.992-1.993 1.993 1.993 0 1 0 1.992 1.992Z"/>
  <path fill="#ffd9d9" d="M46.699-11.988a1.99 1.99 0 0 0-1.992-1.992 1.99 1.99 0 0 0-1.992 1.992 1.99 1.99 0 0 0 1.992 1.992 1.99 1.99 0 0 0 1.992-1.992Z"/>
  <path fill="none" stroke="#000" stroke-miterlimit="10" stroke-width=".399" d="M46.699-11.988a1.99 1.99 0 0 0-1.992-1.992 1.99 1.99 0 0 0-1.992 1.992 1.99 1.99 0 0 0 1.992 1.992 1.99 1.99 0 0 0 1.992-1.992Z"/>
  <path fill="#ffd9d9" d="M46.699-40.336a1.99 1.99 0 0 0-1.992-1.992 1.99 1.99 0 0 0-1.992 1.992 1.99 1.99 0 0 0 1.992 1.992 1.99 1.99 0 0 0 1.992-1.992Z"/>
  <path fill="none" stroke="#000" stroke-miterlimit="10" stroke-width=".399" d="M46.699-40.336a1.99 1.99 0 0 0-1.992-1.992 1.99 1.99 0 0 0-1.992 1.992 1.99 1.99 0 0 0 1.992 1.992 1.99 1.99 0 0 0 1.992-1.992Z"/>
  <path fill="#ffd9d9" d="M75.047 101.398a1.993 1.993 0 1 0-3.987.003 1.993 1.993 0 0 0 3.987-.003Z"/>
  <path fill="none" stroke="#000" stroke-miterlimit="10" stroke-width=".399" d="M75.047 101.398a1.993 1.993 0 1 0-3.987.003 1.993 1.993 0 0 0 3.987-.003Z"/>
  <path fill="#ffd9d9" d="M75.047 73.05a1.993 1.993 0 1 0-3.983 0 1.993 1.993 0 0 0 3.983 0Z"/>
  <path fill="none" stroke="#000" stroke-miterlimit="10" stroke-width=".399" d="M75.047 73.05a1.993 1.993 0 1 0-3.983 0 1.993 1.993 0 0 0 3.983 0Z"/>
  <path fill="#ffd9d9" d="M75.047 44.703a1.993 1.993 0 0 0-3.984 0c0 1.102.89 1.996 1.992 1.996a1.997 1.997 0 0 0 1.992-1.996Z"/>
  <path fill="none" stroke="#000" stroke-miterlimit="10" stroke-width=".399" d="M75.047 44.703a1.993 1.993 0 0 0-3.984 0c0 1.102.89 1.996 1.992 1.996a1.997 1.997 0 0 0 1.992-1.996Z"/>
  <path fill="#ffd9d9" d="M75.047 16.36a1.994 1.994 0 0 0-1.992-1.993 1.993 1.993 0 1 0 1.992 1.992Z"/>
  <path fill="none" stroke="#000" stroke-miterlimit="10" stroke-width=".399" d="M75.047 16.36a1.994 1.994 0 0 0-1.992-1.993 1.993 1.993 0 1 0 1.992 1.992Z"/>
  <path fill="#ffd9d9" d="M75.047-11.988a1.993 1.993 0 1 0-3.986.002 1.993 1.993 0 0 0 3.986-.002Z"/>
  <path fill="none" stroke="#000" stroke-miterlimit="10" stroke-width=".399" d="M75.047-11.988a1.993 1.993 0 1 0-3.986.002 1.993 1.993 0 0 0 3.986-.002Z"/>
  <path fill="#ffd9d9" d="M75.047-40.336a1.993 1.993 0 0 0-1.992-1.992 1.99 1.99 0 0 0-1.992 1.992 1.993 1.993 0 0 0 3.984 0Z"/>
  <path fill="none" stroke="#000" stroke-miterlimit="10" stroke-width=".399" d="M75.047-40.336a1.993 1.993 0 0 0-1.992-1.992 1.99 1.99 0 0 0-1.992 1.992 1.993 1.993 0 0 0 3.984 0Z"/>
  <path fill="#ffd9d9" d="M103.395 101.398a1.994 1.994 0 0 0-3.99 0 1.994 1.994 0 0 0 3.989 0Z"/>
  <path fill="none" stroke="#000" stroke-miterlimit="10" stroke-width=".399" d="M103.395 101.398a1.994 1.994 0 0 0-3.99 0 1.994 1.994 0 0 0 3.989 0Z"/>
  <path fill="#ffd9d9" d="M103.395 73.05a1.997 1.997 0 0 0-1.996-1.991 1.996 1.996 0 0 0-1.993 1.992 1.994 1.994 0 0 0 3.989 0Z"/>
  <path fill="none" stroke="#000" stroke-miterlimit="10" stroke-width=".399" d="M103.395 73.05a1.997 1.997 0 0 0-1.996-1.991 1.996 1.996 0 0 0-1.993 1.992 1.994 1.994 0 0 0 3.989 0Z"/>
  <path fill="#ffd9d9" d="M103.395 44.703a1.997 1.997 0 0 0-1.996-1.992 1.996 1.996 0 0 0-1.993 1.992c0 1.102.895 1.996 1.993 1.996a1.997 1.997 0 0 0 1.996-1.996Z"/>
  <path fill="none" stroke="#000" stroke-miterlimit="10" stroke-width=".399" d="M103.395 44.703a1.997 1.997 0 0 0-1.996-1.992 1.996 1.996 0 0 0-1.993 1.992c0 1.102.895 1.996 1.993 1.996a1.997 1.997 0 0 0 1.996-1.996Z"/>
  <path fill="#ffd9d9" d="M103.395 16.36a1.994 1.994 0 0 0-3.99 0c0 1.097.896 1.992 1.994 1.992a1.997 1.997 0 0 0 1.996-1.993Z"/>
  <path fill="none" stroke="#000" stroke-miterlimit="10" stroke-width=".399" d="M103.395 16.36a1.994 1.994 0 0 0-3.99 0c0 1.097.896 1.992 1.994 1.992a1.997 1.997 0 0 0 1.996-1.993Z"/>
  <path fill="#ffd9d9" d="M103.395-11.988a1.994 1.994 0 0 0-3.99 0 1.994 1.994 0 0 0 3.99 0Z"/>
  <path fill="none" stroke="#000" stroke-miterlimit="10" stroke-width=".399" d="M103.395-11.988a1.994 1.994 0 0 0-3.99 0 1.994 1.994 0 0 0 3.99 0Z"/>
  <path fill="#ffd9d9" d="M103.395-40.336a1.994 1.994 0 0 0-3.99 0 1.994 1.994 0 0 0 3.99 0Z"/>
  <path fill="none" stroke="#000" stroke-miterlimit="10" stroke-width=".399" d="M103.395-40.336a1.994 1.994 0 0 0-3.99 0 1.994 1.994 0 0 0 3.99 0Z"/>
  <path fill="#ffd9d9" d="M-9.996 129.746a1.993 1.993 0 1 0-3.983.002 1.993 1.993 0 0 0 3.983-.002Z"/>
  <path fill="none" stroke="#000" stroke-miterlimit="10" stroke-width=".399" d="M-9.996 129.746a1.993 1.993 0 1 0-3.983.002 1.993 1.993 0 0 0 3.983-.002Z"/>
  <path fill="#ffd9d9" d="M-38.34-68.684a1.996 1.996 0 0 0-1.992-1.992 1.997 1.997 0 0 0-1.996 1.992 1.994 1.994 0 0 0 3.988 0Z"/>
  <path fill="none" stroke="#000" stroke-miterlimit="10" stroke-width=".399" d="M-38.34-68.684a1.996 1.996 0 0 0-1.992-1.992 1.997 1.997 0 0 0-1.996 1.992 1.994 1.994 0 0 0 3.988 0Z"/>
  <path fill="#ffd9d9" d="M-66.688 101.398c0-1.101-.89-1.992-1.992-1.992s-1.992.89-1.992 1.992c0 1.102.89 1.993 1.992 1.993s1.993-.891 1.993-1.993Z"/>
  <path fill="none" stroke="#000" stroke-miterlimit="10" stroke-width=".399" d="M-66.688 101.398c0-1.101-.89-1.992-1.992-1.992s-1.992.89-1.992 1.992c0 1.102.89 1.993 1.992 1.993s1.993-.891 1.993-1.993Z"/>
  <path fill="#ffd9d9" d="M131.738 73.05a1.993 1.993 0 1 0-3.985.002 1.993 1.993 0 0 0 3.985-.001Z"/>
  <path fill="none" stroke="#000" stroke-miterlimit="10" stroke-width=".399" d="M131.738 73.05a1.993 1.993 0 1 0-3.985.002 1.993 1.993 0 0 0 3.985-.001Z"/>
  <path fill="#ffd9d9" d="M46.699 129.746a1.99 1.99 0 0 0-1.992-1.992c-1.102 0-1.992.89-1.992 1.992s.89 1.992 1.992 1.992a1.99 1.99 0 0 0 1.992-1.992Z"/>
  <path fill="none" stroke="#000" stroke-miterlimit="10" stroke-width=".399" d="M46.699 129.746a1.99 1.99 0 0 0-1.992-1.992c-1.102 0-1.992.89-1.992 1.992s.89 1.992 1.992 1.992a1.99 1.99 0 0 0 1.992-1.992Z"/>
  <path fill="#ffd9d9" d="M18.352-68.684a1.993 1.993 0 1 0-3.987.003 1.993 1.993 0 0 0 3.987-.003Z"/>
  <path fill="none" stroke="#000" stroke-miterlimit="10" stroke-width=".399" d="M18.352-68.684a1.993 1.993 0 1 0-3.987.003 1.993 1.993 0 0 0 3.987-.003Z"/>
  <path fill="#ffd9d9" d="M-66.688 44.703A1.993 1.993 0 1 0-68.68 46.7a1.994 1.994 0 0 0 1.993-1.996Z"/>
  <path fill="none" stroke="#000" stroke-miterlimit="10" stroke-width=".399" d="M-66.688 44.703A1.993 1.993 0 1 0-68.68 46.7a1.994 1.994 0 0 0 1.993-1.996Z"/>
  <path fill="#ffd9d9" d="M131.738 16.36a1.99 1.99 0 0 0-1.992-1.993 1.994 1.994 0 0 0-1.992 1.992 1.993 1.993 0 0 0 3.984 0Z"/>
  <path fill="none" stroke="#000" stroke-miterlimit="10" stroke-width=".399" d="M131.738 16.36a1.99 1.99 0 0 0-1.992-1.993 1.994 1.994 0 0 0-1.992 1.992 1.993 1.993 0 0 0 3.984 0Z"/>
  <path fill="#ffd9d9" d="M103.395 129.746a1.994 1.994 0 0 0-3.99 0 1.994 1.994 0 0 0 3.99 0Z"/>
  <path fill="none" stroke="#000" stroke-miterlimit="10" stroke-width=".399" d="M103.395 129.746a1.994 1.994 0 0 0-3.99 0 1.994 1.994 0 0 0 3.99 0Z"/>
  <path fill="#ffd9d9" d="M75.047-68.684a1.996 1.996 0 0 0-1.992-1.992 1.993 1.993 0 1 0 1.992 1.992Z"/>
  <path fill="none" stroke="#000" stroke-miterlimit="10" stroke-width=".399" d="M75.047-68.684a1.996 1.996 0 0 0-1.992-1.992 1.993 1.993 0 1 0 1.992 1.992Z"/>
  <path fill="#ffd9d9" d="M-66.688-11.988c0-1.102-.89-1.992-1.992-1.992s-1.992.89-1.992 1.992c0 1.101.89 1.992 1.992 1.992s1.993-.891 1.993-1.992Z"/>
  <path fill="none" stroke="#000" stroke-miterlimit="10" stroke-width=".399" d="M-66.688-11.988c0-1.102-.89-1.992-1.992-1.992s-1.992.89-1.992 1.992c0 1.101.89 1.992 1.992 1.992s1.993-.891 1.993-1.992Z"/>
  <path fill="#ffd9d9" d="M131.738-40.336a1.99 1.99 0 0 0-1.992-1.992 1.993 1.993 0 1 0 1.992 1.992Z"/>
  <path fill="none" stroke="#000" stroke-miterlimit="10" stroke-width=".399" d="M131.738-40.336a1.99 1.99 0 0 0-1.992-1.992 1.993 1.993 0 1 0 1.992 1.992Z"/>
  <path d="M-52.516 115.57a1.993 1.993 0 1 0-1.992 1.996 1.994 1.994 0 0 0 1.992-1.996Z"/>
  <path fill="none" stroke="#000" stroke-miterlimit="10" stroke-width=".399" d="M-52.516 115.57a1.993 1.993 0 1 0-1.992 1.996 1.994 1.994 0 0 0 1.992-1.996Z"/>
  <path d="M-52.516 87.227a1.99 1.99 0 0 0-1.992-1.993 1.993 1.993 0 1 0 1.992 1.992Z"/>
  <path fill="none" stroke="#000" stroke-miterlimit="10" stroke-width=".399" d="M-52.516 87.227a1.99 1.99 0 0 0-1.992-1.993 1.993 1.993 0 1 0 1.992 1.992Z"/>
  <path d="M-52.516 58.879a1.99 1.99 0 0 0-1.992-1.992c-1.101 0-1.992.89-1.992 1.992s.89 1.992 1.992 1.992a1.99 1.99 0 0 0 1.992-1.992Z"/>
  <path fill="none" stroke="#000" stroke-miterlimit="10" stroke-width=".399" d="M-52.516 58.879a1.99 1.99 0 0 0-1.992-1.992c-1.101 0-1.992.89-1.992 1.992s.89 1.992 1.992 1.992a1.99 1.99 0 0 0 1.992-1.992Z"/>
  <path d="M-52.516 30.531a1.99 1.99 0 0 0-1.992-1.992 1.99 1.99 0 0 0-1.992 1.992 1.99 1.99 0 0 0 1.992 1.992 1.99 1.99 0 0 0 1.992-1.992Z"/>
  <path fill="none" stroke="#000" stroke-miterlimit="10" stroke-width=".399" d="M-52.516 30.531a1.99 1.99 0 0 0-1.992-1.992 1.99 1.99 0 0 0-1.992 1.992 1.99 1.99 0 0 0 1.992 1.992 1.99 1.99 0 0 0 1.992-1.992Z"/>
  <path d="M-52.516 2.184c0-1.098-.89-1.993-1.992-1.993a1.993 1.993 0 0 0 0 3.985 1.99 1.99 0 0 0 1.992-1.992Z"/>
  <path fill="none" stroke="#000" stroke-miterlimit="10" stroke-width=".399" d="M-52.516 2.184c0-1.098-.89-1.993-1.992-1.993a1.993 1.993 0 0 0 0 3.985 1.99 1.99 0 0 0 1.992-1.992Z"/>
  <path d="M-52.516-26.16c0-1.102-.89-1.996-1.992-1.996a1.993 1.993 0 0 0 0 3.988 1.993 1.993 0 0 0 1.992-1.992Z"/>
  <path fill="none" stroke="#000" stroke-miterlimit="10" stroke-width=".399" d="M-52.516-26.16c0-1.102-.89-1.996-1.992-1.996a1.993 1.993 0 0 0 0 3.988 1.993 1.993 0 0 0 1.992-1.992Z"/>
  <path d="M-52.516-54.508a1.99 1.99 0 0 0-1.992-1.992 1.993 1.993 0 1 0 1.992 1.992Z"/>
  <path fill="none" stroke="#000" stroke-miterlimit="10" stroke-width=".399" d="M-52.516-54.508a1.99 1.99 0 0 0-1.992-1.992 1.993 1.993 0 1 0 1.992 1.992Z"/>
  <path d="M-24.168 115.57a1.993 1.993 0 1 0-1.992 1.996 1.994 1.994 0 0 0 1.992-1.996Z"/>
  <path fill="none" stroke="#000" stroke-miterlimit="10" stroke-width=".399" d="M-24.168 115.57a1.993 1.993 0 1 0-1.992 1.996 1.994 1.994 0 0 0 1.992-1.996Z"/>
  <path d="M-24.168 87.227a1.99 1.99 0 0 0-1.992-1.993 1.993 1.993 0 1 0 1.992 1.992Z"/>
  <path fill="none" stroke="#000" stroke-miterlimit="10" stroke-width=".399" d="M-24.168 87.227a1.99 1.99 0 0 0-1.992-1.993 1.993 1.993 0 1 0 1.992 1.992Z"/>
  <path d="M-24.168 58.879a1.99 1.99 0 0 0-1.992-1.992c-1.102 0-1.992.89-1.992 1.992s.89 1.992 1.992 1.992a1.99 1.99 0 0 0 1.992-1.992Z"/>
  <path fill="none" stroke="#000" stroke-miterlimit="10" stroke-width=".399" d="M-24.168 58.879a1.99 1.99 0 0 0-1.992-1.992c-1.102 0-1.992.89-1.992 1.992s.89 1.992 1.992 1.992a1.99 1.99 0 0 0 1.992-1.992Z"/>
  <path d="M-24.168 30.531a1.99 1.99 0 0 0-1.992-1.992 1.99 1.99 0 0 0-1.992 1.992 1.99 1.99 0 0 0 1.992 1.992 1.99 1.99 0 0 0 1.992-1.992Z"/>
  <path fill="none" stroke="#000" stroke-miterlimit="10" stroke-width=".399" d="M-24.168 30.531a1.99 1.99 0 0 0-1.992-1.992 1.99 1.99 0 0 0-1.992 1.992 1.99 1.99 0 0 0 1.992 1.992 1.99 1.99 0 0 0 1.992-1.992Z"/>
  <path d="M-24.168 2.184c0-1.098-.89-1.993-1.992-1.993a1.993 1.993 0 0 0 0 3.985 1.99 1.99 0 0 0 1.992-1.992Z"/>
  <path fill="none" stroke="#000" stroke-miterlimit="10" stroke-width=".399" d="M-24.168 2.184c0-1.098-.89-1.993-1.992-1.993a1.993 1.993 0 0 0 0 3.985 1.99 1.99 0 0 0 1.992-1.992Z"/>
  <path d="M-24.168-26.16c0-1.102-.89-1.996-1.992-1.996a1.993 1.993 0 0 0 0 3.988 1.993 1.993 0 0 0 1.992-1.992Z"/>
  <path fill="none" stroke="#000" stroke-miterlimit="10" stroke-width=".399" d="M-24.168-26.16c0-1.102-.89-1.996-1.992-1.996a1.993 1.993 0 0 0 0 3.988 1.993 1.993 0 0 0 1.992-1.992Z"/>
  <path d="M-24.168-54.508A1.99 1.99 0 0 0-26.16-56.5a1.993 1.993 0 1 0 1.992 1.992Z"/>
  <path fill="none" stroke="#000" stroke-miterlimit="10" stroke-width=".399" d="M-24.168-54.508A1.99 1.99 0 0 0-26.16-56.5a1.993 1.993 0 1 0 1.992 1.992Z"/>
  <path d="M4.18 115.57a1.993 1.993 0 0 0-3.984 0c0 1.102.89 1.996 1.991 1.996a1.996 1.996 0 0 0 1.993-1.996Z"/>
  <path fill="none" stroke="#000" stroke-miterlimit="10" stroke-width=".399" d="M4.18 115.57a1.993 1.993 0 0 0-3.984 0c0 1.102.89 1.996 1.991 1.996a1.996 1.996 0 0 0 1.993-1.996Z"/>
  <path d="M4.18 87.227a1.993 1.993 0 1 0-3.986.001 1.993 1.993 0 0 0 3.986-.001Z"/>
  <path fill="none" stroke="#000" stroke-miterlimit="10" stroke-width=".399" d="M4.18 87.227a1.993 1.993 0 1 0-3.986.001 1.993 1.993 0 0 0 3.986-.001Z"/>
  <path d="M4.18 58.879a1.993 1.993 0 1 0-3.986.001 1.993 1.993 0 0 0 3.986-.001Z"/>
  <path fill="none" stroke="#000" stroke-miterlimit="10" stroke-width=".399" d="M4.18 58.879a1.993 1.993 0 1 0-3.986.001 1.993 1.993 0 0 0 3.986-.001Z"/>
  <path d="M4.18 30.531a1.993 1.993 0 1 0-3.986.002 1.993 1.993 0 0 0 3.986-.002Z"/>
  <path fill="none" stroke="#000" stroke-miterlimit="10" stroke-width=".399" d="M4.18 30.531a1.993 1.993 0 1 0-3.986.002 1.993 1.993 0 0 0 3.986-.002Z"/>
  <path d="M4.18 2.184A1.996 1.996 0 0 0 2.188.191a1.993 1.993 0 0 0 0 3.985A1.993 1.993 0 0 0 4.18 2.184Z"/>
  <path fill="none" stroke="#000" stroke-miterlimit="10" stroke-width=".399" d="M4.18 2.184A1.996 1.996 0 0 0 2.188.191a1.993 1.993 0 0 0 0 3.985A1.993 1.993 0 0 0 4.18 2.184Z"/>
  <path d="M4.18-26.16a1.996 1.996 0 0 0-1.992-1.996 1.993 1.993 0 0 0 0 3.988A1.995 1.995 0 0 0 4.18-26.16Z"/>
  <path fill="none" stroke="#000" stroke-miterlimit="10" stroke-width=".399" d="M4.18-26.16a1.996 1.996 0 0 0-1.992-1.996 1.993 1.993 0 0 0 0 3.988A1.995 1.995 0 0 0 4.18-26.16Z"/>
  <path d="M4.18-54.508a1.993 1.993 0 0 0-3.985 0 1.993 1.993 0 0 0 3.985 0Z"/>
  <path fill="none" stroke="#000" stroke-miterlimit="10" stroke-width=".399" d="M4.18-54.508a1.993 1.993 0 0 0-3.985 0 1.993 1.993 0 0 0 3.985 0Z"/>
  <path d="M32.527 115.57a1.995 1.995 0 0 0-1.992-1.992 1.996 1.996 0 0 0-1.996 1.992c0 1.102.895 1.996 1.996 1.996a1.996 1.996 0 0 0 1.992-1.996Z"/>
  <path fill="none" stroke="#000" stroke-miterlimit="10" stroke-width=".399" d="M32.527 115.57a1.995 1.995 0 0 0-1.992-1.992 1.996 1.996 0 0 0-1.996 1.992c0 1.102.895 1.996 1.996 1.996a1.996 1.996 0 0 0 1.992-1.996Z"/>
  <path d="M32.527 87.227a1.994 1.994 0 0 0-3.988 0c0 1.097.895 1.992 1.996 1.992a1.996 1.996 0 0 0 1.992-1.992Z"/>
  <path fill="none" stroke="#000" stroke-miterlimit="10" stroke-width=".399" d="M32.527 87.227a1.994 1.994 0 0 0-3.988 0c0 1.097.895 1.992 1.996 1.992a1.996 1.996 0 0 0 1.992-1.992Z"/>
  <path d="M32.527 58.879a1.994 1.994 0 0 0-3.988 0 1.994 1.994 0 0 0 3.988 0Z"/>
  <path fill="none" stroke="#000" stroke-miterlimit="10" stroke-width=".399" d="M32.527 58.879a1.994 1.994 0 0 0-3.988 0 1.994 1.994 0 0 0 3.988 0Z"/>
  <path d="M32.527 30.531a1.994 1.994 0 0 0-3.988 0 1.994 1.994 0 0 0 3.988 0Z"/>
  <path fill="none" stroke="#000" stroke-miterlimit="10" stroke-width=".399" d="M32.527 30.531a1.994 1.994 0 0 0-3.988 0 1.994 1.994 0 0 0 3.988 0Z"/>
  <path d="M32.527 2.184A1.996 1.996 0 0 0 30.535.191a1.997 1.997 0 0 0-1.996 1.993 1.994 1.994 0 0 0 3.988 0Z"/>
  <path fill="none" stroke="#000" stroke-miterlimit="10" stroke-width=".399" d="M32.527 2.184A1.996 1.996 0 0 0 30.535.191a1.997 1.997 0 0 0-1.996 1.993 1.994 1.994 0 0 0 3.988 0Z"/>
  <path d="M32.527-26.16a1.996 1.996 0 0 0-1.992-1.996 1.997 1.997 0 0 0-1.996 1.996 1.995 1.995 0 0 0 3.988 0Z"/>
  <path fill="none" stroke="#000" stroke-miterlimit="10" stroke-width=".399" d="M32.527-26.16a1.996 1.996 0 0 0-1.992-1.996 1.997 1.997 0 0 0-1.996 1.996 1.995 1.995 0 0 0 3.988 0Z"/>
  <path d="M32.527-54.508a1.993 1.993 0 1 0-3.986.002 1.993 1.993 0 0 0 3.986-.002Z"/>
  <path fill="none" stroke="#000" stroke-miterlimit="10" stroke-width=".399" d="M32.527-54.508a1.993 1.993 0 1 0-3.986.002 1.993 1.993 0 0 0 3.986-.002Z"/>
  <path d="M60.87 115.57a1.993 1.993 0 0 0-3.983 0c0 1.102.894 1.996 1.992 1.996a1.993 1.993 0 0 0 1.992-1.996Z"/>
  <path fill="none" stroke="#000" stroke-miterlimit="10" stroke-width=".399" d="M60.87 115.57a1.993 1.993 0 0 0-3.983 0c0 1.102.894 1.996 1.992 1.996a1.993 1.993 0 0 0 1.992-1.996Z"/>
  <path d="M60.87 87.227a1.993 1.993 0 1 0-3.983 0 1.993 1.993 0 0 0 3.984 0Z"/>
  <path fill="none" stroke="#000" stroke-miterlimit="10" stroke-width=".399" d="M60.87 87.227a1.993 1.993 0 1 0-3.983 0 1.993 1.993 0 0 0 3.984 0Z"/>
  <path d="M60.87 58.879a1.993 1.993 0 1 0-3.983 0 1.993 1.993 0 0 0 3.984 0Z"/>
  <path fill="none" stroke="#000" stroke-miterlimit="10" stroke-width=".399" d="M60.87 58.879a1.993 1.993 0 1 0-3.983 0 1.993 1.993 0 0 0 3.984 0Z"/>
  <path d="M60.87 30.531a1.993 1.993 0 1 0-3.983 0 1.993 1.993 0 0 0 3.984 0Z"/>
  <path fill="none" stroke="#000" stroke-miterlimit="10" stroke-width=".399" d="M60.87 30.531a1.993 1.993 0 1 0-3.983 0 1.993 1.993 0 0 0 3.984 0Z"/>
  <path d="M60.87 2.184c0-1.098-.89-1.993-1.991-1.993a1.993 1.993 0 1 0 1.992 1.993Z"/>
  <path fill="none" stroke="#000" stroke-miterlimit="10" stroke-width=".399" d="M60.87 2.184c0-1.098-.89-1.993-1.991-1.993a1.993 1.993 0 1 0 1.992 1.993Z"/>
  <path d="M60.87-26.16c0-1.102-.89-1.996-1.991-1.996a1.995 1.995 0 0 0 0 3.988 1.992 1.992 0 0 0 1.992-1.992Z"/>
  <path fill="none" stroke="#000" stroke-miterlimit="10" stroke-width=".399" d="M60.87-26.16c0-1.102-.89-1.996-1.991-1.996a1.995 1.995 0 0 0 0 3.988 1.992 1.992 0 0 0 1.992-1.992Z"/>
  <path d="M60.87-54.508a1.993 1.993 0 1 0-3.982.002 1.993 1.993 0 0 0 3.983-.002Z"/>
  <path fill="none" stroke="#000" stroke-miterlimit="10" stroke-width=".399" d="M60.87-54.508a1.993 1.993 0 1 0-3.982.002 1.993 1.993 0 0 0 3.983-.002Z"/>
  <path d="M89.219 115.57a1.993 1.993 0 1 0-3.987.002 1.993 1.993 0 0 0 3.987-.002Z"/>
  <path fill="none" stroke="#000" stroke-miterlimit="10" stroke-width=".399" d="M89.219 115.57a1.993 1.993 0 1 0-3.987.002 1.993 1.993 0 0 0 3.987-.002Z"/>
  <path d="M89.219 87.227a1.99 1.99 0 0 0-1.992-1.993 1.99 1.99 0 0 0-1.993 1.993 1.993 1.993 0 0 0 3.985 0Z"/>
  <path fill="none" stroke="#000" stroke-miterlimit="10" stroke-width=".399" d="M89.219 87.227a1.99 1.99 0 0 0-1.992-1.993 1.99 1.99 0 0 0-1.993 1.993 1.993 1.993 0 0 0 3.985 0Z"/>
  <path d="M89.219 58.879a1.99 1.99 0 0 0-1.992-1.992c-1.102 0-1.993.89-1.993 1.992s.89 1.992 1.993 1.992a1.99 1.99 0 0 0 1.992-1.992Z"/>
  <path fill="none" stroke="#000" stroke-miterlimit="10" stroke-width=".399" d="M89.219 58.879a1.99 1.99 0 0 0-1.992-1.992c-1.102 0-1.993.89-1.993 1.992s.89 1.992 1.993 1.992a1.99 1.99 0 0 0 1.992-1.992Z"/>
  <path d="M89.219 30.531a1.99 1.99 0 0 0-1.992-1.992 1.99 1.99 0 0 0-1.993 1.992 1.99 1.99 0 0 0 1.993 1.992 1.99 1.99 0 0 0 1.992-1.992Z"/>
  <path fill="none" stroke="#000" stroke-miterlimit="10" stroke-width=".399" d="M89.219 30.531a1.99 1.99 0 0 0-1.992-1.992 1.99 1.99 0 0 0-1.993 1.992 1.99 1.99 0 0 0 1.993 1.992 1.99 1.99 0 0 0 1.992-1.992Z"/>
  <path d="M89.219 2.184a1.994 1.994 0 1 0-3.987.001 1.994 1.994 0 0 0 3.987-.001Z"/>
  <path fill="none" stroke="#000" stroke-miterlimit="10" stroke-width=".399" d="M89.219 2.184a1.994 1.994 0 1 0-3.987.001 1.994 1.994 0 0 0 3.987-.001Z"/>
  <path d="M89.219-26.16a1.994 1.994 0 1 0-3.987-.005 1.994 1.994 0 0 0 3.987.005Z"/>
  <path fill="none" stroke="#000" stroke-miterlimit="10" stroke-width=".399" d="M89.219-26.16a1.994 1.994 0 1 0-3.987-.005 1.994 1.994 0 0 0 3.987.005Z"/>
  <path d="M89.219-54.508a1.99 1.99 0 0 0-1.992-1.992 1.991 1.991 0 1 0 0 3.984 1.993 1.993 0 0 0 1.992-1.992Z"/>
  <path fill="none" stroke="#000" stroke-miterlimit="10" stroke-width=".399" d="M89.219-54.508a1.99 1.99 0 0 0-1.992-1.992 1.991 1.991 0 1 0 0 3.984 1.993 1.993 0 0 0 1.992-1.992Z"/>
  <path d="M117.567 115.57a1.993 1.993 0 1 0-3.987.003 1.993 1.993 0 0 0 3.987-.003Z"/>
  <path fill="none" stroke="#000" stroke-miterlimit="10" stroke-width=".399" d="M117.567 115.57a1.993 1.993 0 1 0-3.987.003 1.993 1.993 0 0 0 3.987-.003Z"/>
  <path d="M117.567 87.227a1.99 1.99 0 0 0-1.993-1.993 1.993 1.993 0 1 0 1.993 1.992Z"/>
  <path fill="none" stroke="#000" stroke-miterlimit="10" stroke-width=".399" d="M117.567 87.227a1.99 1.99 0 0 0-1.993-1.993 1.993 1.993 0 1 0 1.993 1.992Z"/>
  <path d="M117.567 58.879a1.99 1.99 0 0 0-1.993-1.992c-1.101 0-1.992.89-1.992 1.992s.89 1.992 1.992 1.992a1.99 1.99 0 0 0 1.993-1.992Z"/>
  <path fill="none" stroke="#000" stroke-miterlimit="10" stroke-width=".399" d="M117.567 58.879a1.99 1.99 0 0 0-1.993-1.992c-1.101 0-1.992.89-1.992 1.992s.89 1.992 1.992 1.992a1.99 1.99 0 0 0 1.993-1.992Z"/>
  <path d="M117.567 30.531a1.99 1.99 0 0 0-1.993-1.992 1.99 1.99 0 0 0-1.992 1.992 1.99 1.99 0 0 0 1.992 1.992 1.99 1.99 0 0 0 1.993-1.992Z"/>
  <path fill="none" stroke="#000" stroke-miterlimit="10" stroke-width=".399" d="M117.567 30.531a1.99 1.99 0 0 0-1.993-1.992 1.99 1.99 0 0 0-1.992 1.992 1.99 1.99 0 0 0 1.992 1.992 1.99 1.99 0 0 0 1.993-1.992Z"/>
  <path d="M117.567 2.184a1.994 1.994 0 1 0-3.983.001 1.994 1.994 0 0 0 3.983-.001Z"/>
  <path fill="none" stroke="#000" stroke-miterlimit="10" stroke-width=".399" d="M117.567 2.184a1.994 1.994 0 1 0-3.983.001 1.994 1.994 0 0 0 3.983-.001Z"/>
  <path d="M117.567-26.16a1.994 1.994 0 1 0-3.983-.005 1.994 1.994 0 0 0 3.983.005Z"/>
  <path fill="none" stroke="#000" stroke-miterlimit="10" stroke-width=".399" d="M117.567-26.16a1.994 1.994 0 1 0-3.983-.005 1.994 1.994 0 0 0 3.983.005Z"/>
  <path d="M117.567-54.508a1.991 1.991 0 0 0-1.993-1.992 1.99 1.99 0 1 0 0 3.984 1.993 1.993 0 0 0 1.993-1.992Z"/>
  <path fill="none" stroke="#000" stroke-miterlimit="10" stroke-width=".399" d="M117.567-54.508a1.991 1.991 0 0 0-1.993-1.992 1.99 1.99 0 1 0 0 3.984 1.993 1.993 0 0 0 1.993-1.992Z"/>
</svg>
